<svg id="Layer_1" data-name="Layer 1" xmlns="http://www.w3.org/2000/svg" viewBox="0 0 122.88 85.5"><defs><style>.cls-1{fill-rule:evenodd;}</style></defs><title>farm</title><path class="cls-1" d="M45.44,15.53A.87.87,0,1,1,47,14.65l1.12,2a.87.87,0,0,1-1.51.87l-1.12-1.94Zm49.34,70L84.14,50H86.9L103,85.49H94.78ZM103,50V35.94H91.44c-1.94.18-2.33-1.36-1.5-2.63l7.39-8.67-.21-.21h-4c-1.44.21-2-1.34-1.1-2.44l8-9.37H97.7c-1.45,0-1.81-1.3-.88-2.57l7.26-8.62c.5-.59,1-1.45,1.89-1.43s1.19.72,1.63,1.24l7.72,9A1.5,1.5,0,0,1,114,12.71H111.9L119.81,22a1.55,1.55,0,0,1-.63,2.65h-4.6l6.9,8.09.76.89a1.47,1.47,0,0,1-1,2.32H108.85V50h14v7.2H96.08l-3-7.2H103ZM16.68,45.21v3.56H15.22V47.64h.33V45.21ZM8.23,41a6.56,6.56,0,0,1-1.47.25,5.47,5.47,0,0,1-3.09-.72,5.26,5.26,0,0,1-2.11-2.37A8.6,8.6,0,0,1,1.46,32,7.14,7.14,0,0,1,.12,27.1a6.15,6.15,0,0,1,1.65-3.42,7.88,7.88,0,0,1,3.48-2.09,11.3,11.3,0,0,1,7.85.73c.3-.24.6-.45.89-.65a7.44,7.44,0,0,1,5.27-1.35,8.44,8.44,0,0,1,5.12,3.27,15.4,15.4,0,0,1,1,1.31,7.6,7.6,0,0,1,4.69,1.28,4.5,4.5,0,0,1,1.61,2.07,4,4,0,0,1,0,2.63,7.29,7.29,0,0,1-3,3.6,9.3,9.3,0,0,1-1.1,3.78,4.79,4.79,0,0,1-2.09,2,3.81,3.81,0,0,1-2.83.13,5.17,5.17,0,0,1-.89-.38l-.59,1.39c-1.47,3.41-2,4.63-2.17,8.58H32.32l-3,7.2H0V50H11.74c-.05-3.76-.38-4.25-2.16-6.92-.38-.58-.82-1.25-1.35-2.1Zm1.07-.4,1.22,1.86c2,2.94,2.3,3.45,2.35,7.55h5c.18-4.19.72-5.45,2.26-9l.67-1.56c-.13-.1-.26-.2-.38-.31a7.78,7.78,0,0,1-.74.69,5.17,5.17,0,0,1-3.5,1.35,5.52,5.52,0,0,1-3.43-1.53c-.28-.25-.56-.52-.84-.82A9.67,9.67,0,0,1,9.3,40.59Zm3.4.24,2.3,3.8-1,.57-2.3-3.79,1-.58ZM40,85.5,46.66,50H43.37L32.75,85.5Zm-10.75,0L39.88,50H37.12L21.05,85.5Zm34.46,0V50H67L70.37,85.5ZM74,85.5,70.33,50h3.34l7,35.52Zm10,0L77.36,50h3.28L91.27,85.5Zm-23.71,0V50H57L53.64,85.5ZM50,85.5,53.68,50H50.34l-7,35.52ZM0,74.68H21.39L16.48,85.5H0V74.68Zm104,0h18.91V85.5h-14L104,74.68ZM0,62.26H27l-3.33,7.35H0V62.26Zm98.37,0h24.51v7.35H101.69l-3.32-7.35ZM52.42,18.42a7.82,7.82,0,1,1-5.54,2.29,7.83,7.83,0,0,1,5.54-2.29Zm4.35,3.47a6.15,6.15,0,0,0-10.5,4.35,6.15,6.15,0,1,0,12.3,0,6.07,6.07,0,0,0-1.8-4.35Zm-5-8.42a.88.88,0,1,1,1.75,0v2.25a.88.88,0,1,1-1.75,0V13.47Zm6.48,1.36a.88.88,0,0,1,1.19-.32.87.87,0,0,1,.32,1.19L58.6,17.65a.88.88,0,0,1-1.52-.87l1.13-2Zm4.93,4.42a.87.87,0,0,1,1.19.32.88.88,0,0,1-.32,1.2l-2,1.12a.87.87,0,0,1-.87-1.51l2-1.13Zm2.06,6.3a.88.88,0,0,1,0,1.76H63a.88.88,0,0,1,0-1.76ZM63.83,32A.88.88,0,0,1,63,33.55l-2-1.13a.87.87,0,1,1,.88-1.51L63.83,32ZM59.41,37a.87.87,0,0,1-.32,1.19.86.86,0,0,1-1.19-.32l-1.13-1.94a.87.87,0,0,1,.32-1.19.85.85,0,0,1,1.19.32L59.41,37ZM53.12,39a.88.88,0,0,1-1.76,0V36.78a.88.88,0,0,1,1.76,0V39Zm-6.48-1.37a.87.87,0,0,1-1.19.33.88.88,0,0,1-.33-1.2l1.13-1.94a.87.87,0,0,1,1.51.87l-1.12,1.94Zm-4.93-4.42a.87.87,0,1,1-.87-1.51l1.94-1.12a.87.87,0,0,1,.87,1.51l-1.94,1.12Zm-2.06-6.29a.88.88,0,1,1,0-1.75H41.9a.88.88,0,0,1,0,1.75ZM41,20.46A.87.87,0,1,1,41.89,19l1.94,1.12A.88.88,0,0,1,43,21.59L41,20.46Z"/></svg>