<?xml version="1.0" standalone="no"?>
<!DOCTYPE svg PUBLIC "-//W3C//DTD SVG 20010904//EN"
 "http://www.w3.org/TR/2001/REC-SVG-20010904/DTD/svg10.dtd">
<svg version="1.0" xmlns="http://www.w3.org/2000/svg"
 width="626.000000pt" height="375.000000pt" viewBox="0 0 626.000000 375.000000"
 preserveAspectRatio="xMidYMid meet">

<g transform="translate(0.000000,375.000000) scale(0.100000,-0.100000)"
fill="#000000" stroke="none">
<path d="M2504 2926 c-12 -32 1 -51 40 -57 21 -3 42 -12 47 -20 5 -8 9 -76 9
-151 0 -135 0 -138 -24 -154 -14 -8 -35 -14 -48 -12 -19 3 -23 -2 -26 -29 l-3
-33 248 -2 248 -3 3 -52 3 -53 145 0 c140 0 144 1 144 21 0 16 5 20 20 16 18
-5 20 0 20 56 0 47 -3 58 -12 49 -19 -19 -28 -14 -28 13 0 22 -4 25 -35 25
-41 0 -42 3 -15 30 36 36 21 91 -28 108 -18 6 -35 6 -45 0 -15 -8 -17 -1 -17
77 0 72 3 88 20 105 11 11 20 33 20 50 l0 30 -340 0 c-287 0 -341 -2 -346 -14z
m44 -19 c2 -10 -3 -17 -12 -17 -10 0 -16 9 -16 21 0 24 23 21 28 -4z m42 3 c0
-11 -7 -20 -15 -20 -8 0 -15 9 -15 20 0 11 7 20 15 20 8 0 15 -9 15 -20z m40
0 c0 -11 -7 -20 -15 -20 -8 0 -15 9 -15 20 0 11 7 20 15 20 8 0 15 -9 15 -20z
m40 0 c0 -11 -7 -20 -15 -20 -15 0 -21 21 -8 33 12 13 23 7 23 -13z m48 -3 c2
-10 -3 -17 -12 -17 -10 0 -16 9 -16 21 0 24 23 21 28 -4z m42 3 c0 -11 -7 -20
-15 -20 -8 0 -15 9 -15 20 0 11 7 20 15 20 8 0 15 -9 15 -20z m40 0 c0 -11 -7
-20 -15 -20 -8 0 -15 9 -15 20 0 11 7 20 15 20 8 0 15 -9 15 -20z m40 0 c0
-11 -7 -20 -15 -20 -15 0 -21 21 -8 33 12 13 23 7 23 -13z m48 -3 c2 -10 -3
-17 -12 -17 -10 0 -16 9 -16 21 0 24 23 21 28 -4z m40 0 c2 -10 -3 -17 -12
-17 -10 0 -16 9 -16 21 0 24 23 21 28 -4z m42 3 c0 -11 -7 -20 -15 -20 -8 0
-15 9 -15 20 0 11 7 20 15 20 8 0 15 -9 15 -20z m40 0 c0 -11 -7 -20 -15 -20
-15 0 -21 21 -8 33 12 13 23 7 23 -13z m46 9 c10 -17 -13 -36 -27 -22 -12 12
-4 33 11 33 5 0 12 -5 16 -11z m42 -12 c2 -10 -3 -17 -12 -17 -10 0 -16 9 -16
21 0 24 23 21 28 -4z m42 3 c0 -11 -7 -20 -15 -20 -8 0 -15 9 -15 20 0 11 7
20 15 20 8 0 15 -9 15 -20z m40 0 c0 -11 -7 -20 -15 -20 -15 0 -21 21 -8 33
12 13 23 7 23 -13z m-106 -56 c12 -12 16 -37 16 -105 0 -85 -1 -89 -22 -89
-49 0 -73 -54 -43 -97 14 -19 13 -21 -17 -27 -17 -3 -95 -6 -174 -6 -181 0
-174 -7 -174 173 0 71 5 137 10 148 10 18 23 19 200 19 158 0 191 -3 204 -16z
m-526 -357 c2 -10 -3 -17 -12 -17 -10 0 -16 9 -16 21 0 24 23 21 28 -4z m40 0
c2 -10 -3 -17 -12 -17 -10 0 -16 9 -16 21 0 24 23 21 28 -4z m42 3 c0 -11 -7
-20 -15 -20 -15 0 -21 21 -8 33 12 13 23 7 23 -13z m40 0 c0 -11 -7 -20 -15
-20 -15 0 -21 21 -8 33 12 13 23 7 23 -13z m48 -3 c2 -10 -3 -17 -12 -17 -10
0 -16 9 -16 21 0 24 23 21 28 -4z m40 0 c2 -10 -3 -17 -12 -17 -10 0 -16 9
-16 21 0 24 23 21 28 -4z m42 3 c0 -11 -7 -20 -15 -20 -15 0 -21 21 -8 33 12
13 23 7 23 -13z m40 0 c0 -11 -7 -20 -15 -20 -15 0 -21 21 -8 33 12 13 23 7
23 -13z m48 -3 c2 -10 -3 -17 -12 -17 -10 0 -16 9 -16 21 0 24 23 21 28 -4z
m40 0 c2 -10 -3 -17 -12 -17 -10 0 -16 9 -16 21 0 24 23 21 28 -4z m42 3 c0
-11 -7 -20 -15 -20 -15 0 -21 21 -8 33 12 13 23 7 23 -13z m26 -17 c-11 -11
-19 6 -11 24 8 17 8 17 12 0 3 -10 2 -21 -1 -24z"/>
<path d="M3183 2780 c0 -47 2 -66 4 -42 2 23 2 61 0 85 -2 23 -4 4 -4 -43z"/>
<path d="M4721 2534 c38 -62 34 -64 -114 -64 -146 0 -177 -10 -177 -55 l0 -24
153 -3 152 -3 0 -52 1 -53 -153 0 -153 0 0 -148 c0 -192 -9 -182 173 -182
l137 0 0 -40 c0 -22 5 -40 10 -40 6 0 10 18 10 40 l0 40 68 0 c92 0 102 11
102 113 l0 77 -85 0 -85 0 0 65 0 65 85 0 85 0 0 84 c0 104 -11 116 -107 116
-57 0 -63 2 -63 20 0 12 7 31 15 44 16 24 16 24 -29 27 l-45 4 20 -31z"/>
<path d="M1135 2240 c-11 -4 -35 -21 -54 -37 -25 -22 -34 -37 -33 -59 0 -16
21 -139 46 -274 25 -135 53 -285 62 -335 l16 -90 -75 -200 c-41 -110 -91 -243
-110 -295 -60 -165 -75 -204 -86 -233 l-11 -29 -47 56 c-26 31 -52 56 -57 56
-10 0 21 -40 42 -53 16 -11 16 -28 -1 -21 -17 6 -15 -91 2 -124 17 -31 5 -28
-56 18 -56 43 -64 56 -35 63 9 2 5 3 -9 1 -14 -1 -42 1 -62 6 -21 4 -39 4 -43
-1 -3 -5 10 -9 29 -9 23 0 41 -8 60 -28 l27 -28 -45 -13 c-49 -15 -70 -33 -61
-56 8 -22 40 -18 97 11 45 22 55 24 80 14 24 -10 29 -18 29 -45 0 -71 -150
-65 1710 -65 l1678 0 16 93 c8 50 18 113 22 139 5 38 10 47 27 50 21 3 23 9
41 111 l7 37 -126 0 -126 0 34 43 c43 52 60 84 52 97 -12 19 -37 10 -71 -24
l-34 -34 0 33 c0 49 16 82 42 91 72 22 198 136 238 214 40 79 11 109 -72 72
-92 -40 -159 -124 -202 -252 -14 -43 -26 -65 -29 -56 -4 9 -12 74 -18 144
l-12 128 36 86 c45 103 55 165 33 193 -16 20 -16 20 -36 -5 -42 -52 -53 -122
-47 -297 l5 -161 -30 33 c-58 67 -128 93 -128 49 0 -18 95 -115 143 -147 35
-23 58 -100 50 -167 l-6 -50 -68 0 c-56 0 -69 3 -73 18 -3 9 -37 186 -75 392
-38 206 -91 488 -116 625 -26 138 -51 258 -57 268 -5 10 -24 27 -41 37 -31 19
-61 20 -1242 19 -665 0 -1219 -4 -1230 -9z m2415 -155 l0 -25 -1160 0 -1160 0
0 25 0 25 1160 0 1160 0 0 -25z m-492 -281 c61 -30 105 -80 127 -143 21 -61
19 -99 -7 -151 -29 -56 -73 -80 -148 -80 -119 0 -221 100 -228 224 -4 79 18
122 78 154 58 29 114 28 178 -4z m-710 -288 c3 -13 -1 -17 -14 -14 -11 2 -20
11 -22 22 -3 13 1 17 14 14 11 -2 20 -11 22 -22z m-710 -73 c3 -19 -1 -23 -26
-23 -26 0 -29 -3 -24 -25 4 -24 7 -25 87 -25 73 0 83 -2 88 -19 3 -11 2 -22
-1 -25 -3 -3 -79 -6 -169 -6 -123 0 -163 3 -164 13 0 6 -2 19 -4 27 -1 8 -6
37 -10 63 l-7 48 113 -3 c110 -3 114 -4 117 -25z m371 -497 c9 -11 9 -16 0
-21 -10 -7 -28 10 -29 28 0 12 17 8 29 -7z m1341 -6 c0 -5 -5 -12 -11 -16 -12
-7 -31 15 -23 28 6 9 34 -1 34 -12z m692 -120 c2 -41 -1 -61 -9 -65 -9 -3 -13
6 -13 25 0 17 -5 30 -11 30 -5 0 -7 5 -4 10 3 6 2 10 -3 10 -5 0 -12 9 -15 20
-7 26 -63 28 -70 3 -4 -14 -5 -12 -6 5 -1 21 3 22 63 22 l64 0 4 -60z m-681
13 c3 -18 2 -36 -4 -42 -7 -7 -128 -11 -363 -11 -388 0 -384 -1 -384 61 l0 29
372 -2 372 -3 7 -32z m586 -103 c3 -8 8 -30 10 -49 2 -19 8 -42 13 -52 6 -10
9 -42 9 -71 -1 -31 -4 -41 -6 -23 -2 17 -13 72 -23 122 -19 86 -25 138 -13
103 2 -8 7 -22 10 -30z m-467 11 c5 -11 10 -29 10 -40 0 -21 -4 -21 -289 -21
-314 0 -301 -2 -301 56 l0 24 285 0 c271 0 285 -1 295 -19z m-1112 -19 c4 -26
-14 -30 -21 -4 -4 13 -5 11 -6 -5 0 -13 -6 -23 -12 -23 -6 0 -8 7 -5 16 3 9 6
22 6 31 0 23 35 11 38 -15z m1659 -4 c-3 -8 -6 -5 -6 6 -1 11 2 17 5 13 3 -3
4 -12 1 -19z m70 16 c-3 -3 -12 -4 -19 -1 -8 3 -5 6 6 6 11 1 17 -2 13 -5z
m-3233 -22 c2 -4 -4 -9 -15 -9 -11 -1 -17 2 -14 8 7 11 22 12 29 1z m3196 -2
c0 -5 -4 -10 -10 -10 -5 0 -10 5 -10 10 0 6 5 10 10 10 6 0 10 -4 10 -10z m50
-40 c0 -20 -2 -22 -10 -10 -5 8 -10 26 -10 40 0 20 2 22 10 10 5 -8 10 -26 10
-40z m-1510 -39 c5 -11 10 -22 10 -25 0 -3 -133 -6 -295 -6 l-295 0 0 25 0 25
285 0 c271 0 285 -1 295 -19z m1517 -28 c-3 -10 -5 -4 -5 12 0 17 2 24 5 18 2
-7 2 -21 0 -30z m10 -75 c-2 -13 -4 -5 -4 17 -1 22 1 32 4 23 2 -10 2 -28 0
-40z m13 -40 c0 -4 -46 -7 -102 -6 l-103 2 80 6 c103 8 125 7 125 -2z"/>
<path d="M571 1666 c-10 -11 -9 -14 1 -12 14 2 23 15 15 22 -2 2 -10 -2 -16
-10z"/>
<path d="M604 1574 c-1 -74 -1 -76 8 -31 5 26 5 61 0 79 -6 24 -8 13 -8 -48z"/>
<path d="M540 1613 c-18 -39 -25 -165 -11 -192 7 -12 19 -65 26 -118 8 -52 28
-134 44 -181 17 -48 28 -88 26 -90 -10 -11 -64 42 -70 68 -8 38 -24 48 -41 25
-11 -15 -18 -16 -45 -6 -68 23 -118 5 -104 -38 8 -26 32 -46 32 -26 0 8 -4 12
-8 9 -10 -6 -22 33 -14 46 23 37 219 -37 198 -74 -3 -6 -3 -8 2 -4 4 4 25 -2
46 -13 22 -11 39 -17 39 -14 0 3 -9 24 -21 47 -18 36 -19 42 -6 50 18 10 57
109 56 141 -1 12 -5 3 -11 -20 -9 -44 -27 -52 -41 -19 -10 25 -18 16 -10 -13
3 -13 11 -20 19 -17 17 7 18 -2 2 -37 -17 -36 -23 -34 -36 11 -10 34 -9 64 5
102 3 8 8 24 10 35 18 97 54 114 64 30 l6 -50 1 42 c2 54 -6 73 -30 73 -23 0
-42 -39 -60 -122 -6 -32 -15 -58 -19 -58 -3 0 -12 34 -18 75 -12 69 -11 81 9
141 12 36 20 67 18 70 -3 2 -13 -22 -23 -54 -14 -45 -19 -53 -25 -37 -4 11 -6
36 -4 55 3 35 3 35 -5 5 -8 -29 -9 -29 -10 11 0 22 4 45 10 51 9 9 23 123 15
123 -2 0 -9 -12 -16 -27z m-3 -85 c-3 -7 -5 -2 -5 12 0 14 2 19 5 13 2 -7 2
-19 0 -25z"/>
<path d="M776 1155 c-9 -14 -12 -25 -7 -25 5 0 12 9 16 19 3 11 16 22 28 24
22 4 22 4 1 6 -13 0 -28 -9 -38 -24z"/>
<path d="M5343 1161 c-97 -36 -168 -106 -204 -200 -30 -79 -24 -204 13 -276
131 -255 497 -255 617 0 81 173 11 380 -157 462 -74 36 -193 43 -269 14z m140
-272 c27 -15 37 -28 37 -53 0 -52 -75 -76 -104 -34 -23 32 -20 54 10 77 31 25
29 24 57 10z"/>
<path d="M5432 868 c-34 -34 6 -90 48 -68 25 13 28 65 4 74 -24 9 -39 7 -52
-6z"/>
<path d="M835 1120 c3 -5 8 -10 11 -10 2 0 4 5 4 10 0 6 -5 10 -11 10 -5 0 -7
-4 -4 -10z"/>
<path d="M737 1057 c-9 -36 -18 -123 -11 -109 3 6 14 12 25 12 16 0 19 7 19
40 0 39 1 40 34 40 34 0 35 0 25 -32 -5 -18 -9 -42 -8 -53 0 -11 6 3 13 30 7
28 11 53 9 58 -2 4 -19 7 -38 7 -18 0 -40 7 -48 15 -13 13 -16 12 -20 -8z m10
-39 c-3 -8 -6 -5 -6 6 -1 11 2 17 5 13 3 -3 4 -12 1 -19z"/>
<path d="M430 1009 c38 -31 97 -59 105 -51 5 4 6 2 2 -3 -4 -9 26 -79 81 -188
2 -4 -12 2 -32 14 -45 26 -90 23 -94 -8 -3 -17 3 -24 25 -29 15 -4 35 -15 43
-26 15 -18 16 -18 15 9 0 24 4 28 28 29 15 1 28 -3 28 -7 1 -5 2 -13 3 -18 3
-23 16 -21 16 2 0 15 -4 27 -8 27 -4 0 -15 13 -24 28 -16 27 -16 31 4 85 11
31 24 57 28 57 3 0 15 7 26 15 18 13 18 14 -4 8 -12 -3 -25 -9 -28 -14 -3 -5
-10 -9 -15 -9 -6 0 -8 4 -5 9 4 5 -3 7 -13 4 -10 -3 -32 3 -47 14 -15 10 -36
16 -46 15 -10 -2 -18 2 -18 8 0 6 -4 9 -9 6 -4 -3 -23 6 -41 19 -40 30 -56 33
-20 4z m150 -101 c0 -34 -13 -29 -25 10 -5 16 -2 22 9 22 11 0 16 -10 16 -32z"/>
<path d="M700 917 c0 -12 58 -95 73 -103 8 -5 7 -2 -2 9 -10 13 -11 20 -2 31
8 9 8 16 2 20 -5 4 -11 -2 -13 -11 -3 -14 -10 -9 -31 22 -15 22 -27 36 -27 32z"/>
<path d="M687 814 c-4 -4 -7 -18 -7 -31 0 -18 5 -23 26 -23 22 0 25 4 22 27
-3 27 -26 41 -41 27z"/>
<path d="M740 751 c0 -5 7 -11 15 -15 9 -3 15 0 15 9 0 8 -7 15 -15 15 -8 0
-15 -4 -15 -9z"/>
<path d="M596 722 c-3 -5 1 -9 9 -9 8 0 15 4 15 9 0 4 -4 8 -9 8 -6 0 -12 -4
-15 -8z"/>
</g>
</svg>
